<svg width="44" height="44" viewBox="0 0 44 44" fill="none" xmlns="http://www.w3.org/2000/svg">
<path d="M20.0278 7.51607L10.3514 13.1027C6.14828 15.5294 5.08924 19.4818 7.51591 23.6849L13.0959 33.3497C15.5292 37.5644 19.4816 38.6234 23.6847 36.1967L33.3496 30.6167C37.5527 28.1901 38.6117 24.2377 36.185 20.0346L30.5984 10.3582C28.1833 6.14844 24.2309 5.08941 20.0278 7.51607ZM17.1002 23.032C17.2417 22.5038 17.7959 22.1838 18.3241 22.3253L21.4569 23.1647L17.3302 16.0171C17.0569 15.5437 17.2228 14.9244 17.6963 14.6511C18.1697 14.3777 18.7889 14.5437 19.0623 15.0171L23.1889 22.1647L24.0284 19.032C24.1699 18.5038 24.7241 18.1838 25.2523 18.3253C25.7805 18.4668 26.1005 19.0211 25.959 19.5493L24.4949 25.0134C24.4607 25.1409 24.4017 25.2519 24.3244 25.3581C24.2472 25.4643 24.1451 25.5541 24.0296 25.6207C23.9141 25.6874 23.7969 25.7243 23.6547 25.7448C23.5241 25.7586 23.3984 25.7542 23.2709 25.72L17.8068 24.2559C17.2786 24.1144 16.9653 23.5717 17.1002 23.032ZM32.5416 23.7239C30.6673 25.8376 28.4575 27.6369 26.0096 29.0502C23.5616 30.4635 20.8985 31.4776 18.1309 32.0439C17.5939 32.1538 17.0648 31.7973 16.9549 31.2603C16.845 30.7233 17.1833 30.1893 17.7385 30.0843C22.8607 29.0361 27.5834 26.3094 31.0522 22.3976C31.4159 21.9875 32.0524 21.9433 32.4625 22.307C32.8677 22.6889 32.9052 23.3138 32.5416 23.7239Z" fill="white"/>
</svg>
