<svg width="48" height="48" viewBox="0 0 48 48" fill="none" xmlns="http://www.w3.org/2000/svg">
<path d="M34.6514 14.2107C34.8994 13.6383 35.1356 13.0754 35.3585 12.5281C35.9444 11.0904 37.7999 10.8373 38.2988 12.3074C42.4569 24.559 27.3112 49.1845 14.2409 43.0281C0.265759 36.4455 12.9392 3.56822 21.4103 4.0043C22.4275 4.8212 23.0726 6.65431 23.4543 9.01372C24.3205 14.3666 23.8318 22.4285 23.2603 27.4783C23.2002 28.0088 23.5693 28.5112 24.0967 28.4284C27.8337 27.842 31.9456 20.4572 34.6514 14.2107ZM23.4543 9.01372C26.4627 5.21037 32.9138 0.92509 34.6514 14.2107" stroke="#222222" stroke-width="1.5"/>
</svg>
